<svg xmlns="http://www.w3.org/2000/svg" width="32" height="32" viewBox="0 0 32 32"><path d="M16.262 8.203c-4.301 0-7.801 3.5-7.801 7.805s3.5 7.805 7.8 7.805c4.305 0 7.805-3.504 7.805-7.805 0-4.305-3.5-7.805-7.804-7.805zm0 0" fill="#3994d1"/><path d="M28.04 18.09c-.99 5.605-5.892 9.879-11.778 9.879-6.594 0-11.961-5.367-11.961-11.961S9.668 4.047 16.26 4.047c5.63 0 10.36 3.906 11.626 9.148l2.011-1.664c-1.882-5.726-7.28-9.879-13.636-9.879-7.914 0-14.352 6.442-14.352 14.356s6.438 14.351 14.352 14.351c6.605 0 12.175-4.48 13.843-10.558zm0 0" fill="#21415b"/><path d="M19.23 13.602a6.243 6.243 0 0 0-.707-.18 5.249 5.249 0 0 0-1.05-.094c-.23 0-.473.024-.727.067a4.268 4.268 0 0 0-.539.12v7.16h-2.066v-8.507c.398-.148.894-.29 1.496-.422a9.425 9.425 0 0 1 1.988-.195 8.36 8.36 0 0 1 1.555.195c.172.043.308.078.41.113zm0 0" fill="#fff"/><path d="M16.297 20.762H14.05v-8.657l.058-.023c.399-.148.907-.289 1.508-.422a9.376 9.376 0 0 1 2.008-.2c.137 0 .297.009.488.028.18.016.367.04.551.07.18.028.363.063.535.102.176.043.317.078.418.113l.074.024-.394 1.918-.094-.031a7.142 7.142 0 0 0-.7-.176 5.073 5.073 0 0 0-1.03-.094c-.223 0-.461.024-.711.07a4.1 4.1 0 0 0-.465.098zm-2.067-.176h1.887v-7.133l.063-.023c.105-.035.285-.075.55-.121a4.24 4.24 0 0 1 .743-.07c.398 0 .761.03 1.066.097.254.05.461.101.625.152l.32-1.57c-.086-.023-.195-.055-.324-.086-.172-.039-.348-.07-.523-.102-.18-.027-.364-.046-.543-.066a5.583 5.583 0 0 0-.469-.023c-.719 0-1.383.062-1.973.191-.562.125-1.039.258-1.422.395zm0 0" fill="#fff"/></svg>